X Lossless Decoder version 20110502 (132.0)

XLD extraction logfile from 2011-05-05 22:11:14 +0900

RADIO-K / JUST TWO OF US (remastered in 2006)

Used drive : MATSHITA DVD-R   UJ-868 (revision KB19)

Ripper mode             : CDParanoia III 10.2
Disable audio cache     : OK for the drive with a cache less than 2750KiB
Make use of C2 pointers : NO
Read offset correction  : 102
Max retry count         : 100
Gap status              : Analyzed, Appended

TOC of the extracted CD
     Track |   Start  |  Length  | Start sector | End sector 
    ---------------------------------------------------------
        1  | 00:00:00 | 05:04:30 |         0    |    22829   
        2  | 05:04:30 | 02:52:15 |     22830    |    35744   
        3  | 07:56:45 | 03:13:10 |     35745    |    50229   
        4  | 11:09:55 | 03:59:48 |     50230    |    68202   
        5  | 15:09:28 | 04:09:71 |     68203    |    86948   
        6  | 19:19:24 | 04:30:37 |     86949    |   107235   

AccurateRip Summary
    Disc not found in AccurateRip DB.

All Tracks
    Filename : /Users/m4c/Public/flac/JUST TWO OF US (remastered in 2006).flac
    CRC32 hash             : 17C1EA44
    CRC32 hash (skip zero) : F29B5257
    Statistics
        Read error                           : 0
        Skipped (treated as error)           : 0
        Edge jitter error (maybe fixed)      : 0
        Atom jitter error (maybe fixed)      : 0
        Drift error (maybe fixed)            : 0
        Dropped bytes error (maybe fixed)    : 0
        Duplicated bytes error (maybe fixed) : 0

Track 01
    Pre-gap length : 00:02:00

    CRC32 hash             : 3C1991CB
    CRC32 hash (skip zero) : E43DB273
    AccurateRip signature  : 0AED9001
        ->Track not present in AccurateRip database.
    Statistics
        Read error                           : 0
        Skipped (treated as error)           : 0
        Edge jitter error (maybe fixed)      : 0
        Atom jitter error (maybe fixed)      : 0
        Drift error (maybe fixed)            : 0
        Dropped bytes error (maybe fixed)    : 0
        Duplicated bytes error (maybe fixed) : 0

Track 02

    CRC32 hash             : 4778B3A6
    CRC32 hash (skip zero) : 5F73C672
    AccurateRip signature  : 864FCA09
        ->Track not present in AccurateRip database.
    Statistics
        Read error                           : 0
        Skipped (treated as error)           : 0
        Edge jitter error (maybe fixed)      : 0
        Atom jitter error (maybe fixed)      : 0
        Drift error (maybe fixed)            : 0
        Dropped bytes error (maybe fixed)    : 0
        Duplicated bytes error (maybe fixed) : 0

Track 03

    CRC32 hash             : C993E605
    CRC32 hash (skip zero) : CF3FF03F
    AccurateRip signature  : 1CBBB98F
        ->Track not present in AccurateRip database.
    Statistics
        Read error                           : 0
        Skipped (treated as error)           : 0
        Edge jitter error (maybe fixed)      : 0
        Atom jitter error (maybe fixed)      : 0
        Drift error (maybe fixed)            : 0
        Dropped bytes error (maybe fixed)    : 0
        Duplicated bytes error (maybe fixed) : 0

Track 04
    Pre-gap length : 00:02:39

    CRC32 hash             : 21409E62
    CRC32 hash (skip zero) : 734ADFE3
    AccurateRip signature  : AD3A1014
        ->Track not present in AccurateRip database.
    Statistics
        Read error                           : 0
        Skipped (treated as error)           : 0
        Edge jitter error (maybe fixed)      : 0
        Atom jitter error (maybe fixed)      : 0
        Drift error (maybe fixed)            : 0
        Dropped bytes error (maybe fixed)    : 0
        Duplicated bytes error (maybe fixed) : 0

Track 05

    CRC32 hash             : 3047A365
    CRC32 hash (skip zero) : F19B523F
    AccurateRip signature  : 6C528975
        ->Track not present in AccurateRip database.
    Statistics
        Read error                           : 0
        Skipped (treated as error)           : 0
        Edge jitter error (maybe fixed)      : 0
        Atom jitter error (maybe fixed)      : 0
        Drift error (maybe fixed)            : 0
        Dropped bytes error (maybe fixed)    : 0
        Duplicated bytes error (maybe fixed) : 0

Track 06

    CRC32 hash             : D08F4CC2
    CRC32 hash (skip zero) : 10862B28
    AccurateRip signature  : 5B324C61
        ->Track not present in AccurateRip database.
    Statistics
        Read error                           : 0
        Skipped (treated as error)           : 0
        Edge jitter error (maybe fixed)      : 0
        Atom jitter error (maybe fixed)      : 0
        Drift error (maybe fixed)            : 0
        Dropped bytes error (maybe fixed)    : 0
        Duplicated bytes error (maybe fixed) : 0

No errors occurred

End of status report
